# AST/ASF file generated using VICON BodyLanguage
# -----------------------------------------------
:version 1.10
:name VICON
:units
  mass 1.0
  length 0.45
  angle deg
:documentation
   .ast/.asf automatically generated from VICON data using
   VICON BodyBuilder and BodyLanguage model FoxedUp or BRILLIANT.MOD
:root
   order TX TY TZ RX RY RZ
   axis XYZ
   position 0 0 0  
   orientation 0 0 0 
:bonedata
  begin
     id 1 
     name lhipjoint
     direction 0.596438 -0.722117 0.35044 
     length 2.43043 
     axis 0 0 0  XYZ
  end
  begin
     id 2 
     name lfemur
     direction 0.34202 -0.939693 0  
     length 7.0339  
     axis 0 0 20  XYZ
    dof rx ry rz
    limits (-160.0 20.0)
           (-70.0 70.0)
           (-60.0 70.0)
  end
  begin
     id 3 
     name ltibia
     direction 0.34202 -0.939693 0   
     length 7.56602   
     axis 0 0 20   XYZ
    dof rx
    limits (-10.0 170.0)
  end
  begin
     id 4 
     name lfoot
     direction 0.0985677 -0.270812 0.957572   
     length 1.85172   
     axis -90 7.62852e-016 20   XYZ
    dof rx rz
    limits (-45.0 90.0)
           (-70.0 20.0)
  end
  begin
     id 5 
     name ltoes
     direction 1.53534e-011 -4.21843e-011 1   
     length 0.929904   
     axis -90 7.62852e-016 20   XYZ
    dof rx
    limits (-90.0 20.0)
  end
  begin
     id 6 
     name rhipjoint
     direction -0.585088 -0.729594 0.354068   
     length 2.40552  
     axis 0 0 0  XYZ 
  end
  begin
     id 7 
     name rfemur
     direction -0.34202 -0.939693 0   
     length 7.12573   
     axis 0 0 -20   XYZ
    dof rx ry rz
    limits (-160.0 20.0)
           (-70.0 70.0)
           (-70.0 60.0)
  end
  begin
     id 8 
     name rtibia
     direction -0.34202 -0.939693 0   
     length 7.35777   
     axis 0 0 -20   XYZ
    dof rx
    limits (-10.0 170.0)
 end
 begin
     id 9 
     name rfoot
     direction -0.120907 -0.33219 0.935431   
     length 2.0994  
     axis -90 -7.62852e-016 -20   XYZ
    dof rx rz
    limits (-45.0 90.0)
           (-20.0 70.0)
  end
  begin
     id 10 
     name rtoes
     direction -1.53577e-011 -4.21787e-011 1   
     length 1.04244   
     axis -90 -7.62852e-016 -20   XYZ
    dof rx
    limits (-90.0 20.0)
  end
  begin
     id 11 
     name lowerback
     direction 0.00268363 0.993603 -0.112896   
     length 2.15839   
     axis 0 0 0   XYZ
    dof rx ry rz
    limits (-20.0 45.0)
           (-30.0 30.0)
           (-30.0 30.0)
  end
  begin
     id 12 
     name upperback
     direction 0.0272563 0.999411 -0.0208618   
     length 2.16443   
     axis 0 0 0   XYZ
    dof rx ry rz
    limits (-20.0 45.0)
           (-30.0 30.0)
           (-30.0 30.0)
  end
  begin
     id 13 
     name thorax
     direction 0.0254655 0.999174 0.0316806   
     length 2.19003   
     axis 0 0 0   XYZ
    dof rx ry rz
    limits (-20.0 45.0)
           (-30.0 30.0)
           (-30.0 30.0)
  end
  begin
     id 14 
     name lowerneck
     direction -0.0102178 0.988048 0.15381   
     length 1.61507   
     axis 0 0 0   XYZ
    dof rx ry rz
    limits (-20.0 45.0)
           (-30.0 30.0)
           (-30.0 30.0)
  end
  begin
     id 15 
     name upperneck
     direction -0.0061965 0.994088 -0.108398   
     length 1.64042   
     axis 0 0 0   XYZ
    dof rx ry rz
    limits (-20.0 45.0)
           (-30.0 30.0)
           (-30.0 30.0)
  end
  begin
     id 16
     name head
     direction -0.00151929 0.998591 -0.0530385  
     length 1.64343  
     axis 0 0 0   XYZ
    dof rx ry rz
    limits (-20.0 45.0)
           (-30.0 30.0)
           (-30.0 30.0)
  end
  begin
     id 17 
     name lclavicle
     direction 0.948974 0.284245 -0.136574  
     length 3.3483  
     axis 0 0 0   XYZ
    dof ry rz
    limits (-20.0 10.0)
           (0.0 20.0)
  end
  begin
     id 18 
     name lhumerus
     direction 1 -4.48961e-011 1.68576e-027   
     length 4.93485   
     axis -180 -30 -90   XYZ
    dof rx ry rz
    limits (-60.0 90.0)
           (-90.0 90.0)
           (-90.0 90.0)
  end
  begin
     id 19
     name lradius
     direction 1 -4.48965e-011 -2.46405e-027   
     length 3.41719   
     axis -180 -30 -90   XYZ
    dof rx
    limits (-10.0 170.0)
  end
  begin
     id 20
     name lwrist
     direction 1 -4.48968e-011 -8.00486e-028   
     length 1.7086   
     axis 3.27501e-015 90 90   XYZ
    dof ry
    limits (-180.0 0.0)
 end
  begin
     id 21 
     name lhand
     direction 1 -4.48977e-011 -1.60161e-027   
     length 0.6241   
     axis 1.02148e-015 90 90   XYZ
    dof rx rz
    limits (-90.0 90.0)
           (-45.0 45.0)
  end
  begin
     id 22 
     name lfingers
     direction 1 -4.49049e-011 -3.21275e-027   
     length 0.503166   
     axis 2.04295e-015 90 90   XYZ
    dof rx
    limits (0.0 90.0)
  end
  begin
     id 23
     name lthumb
     direction 0.707107 -6.34975e-011 0.707107   
     length 0.722448   
     axis -90 45 -1.62303e-014   XYZ
    dof rx rz
    limits (-45.0 45.0)
           (-45.0 45.0)
  end
  begin
     id 24 
     name rclavicle
     direction -0.904485 0.355099 -0.236246   
     length 3.18329  
     axis 0 0 0   XYZ 
    dof ry rz
    limits (-10.0 20.0)
           (-20.0 0.0)
  end
  begin
     id 25 
     name rhumerus
     direction -1 -4.48953e-011 1.32816e-027  
     length 5.22034   
     axis -180 30 90   XYZ
    dof rx ry rz
    limits (-90.0 60.0)
           (-90.0 90.0)
           (-90.0 90.0)
  end
  begin
     id 26 
     name rradius
     direction -1 -4.48965e-011 -3.93727e-027   
     length 3.41809   
     axis -180 30 90   XYZ
    dof rx
    limits (-10.0 170.0)
  end
  begin
     id 27 
     name rwrist
     direction -1 -4.48962e-011 -8.003e-028   
     length 1.70904   
     axis 3.27501e-015 -90 -90   XYZ
    dof ry
    limits (-180.0 0.0)
  end
  begin
     id 28
     name rhand
     direction -1 -4.49008e-011 -1.60365e-027   
     length 0.77534   
     axis 1.02148e-015 -90 -90   XYZ
    dof rx rz
    limits (-90.0 90.0)
           (-45.0 45.0)
  end
  begin
     id 29
     name rfingers
     direction -1 -4.49001e-011 -3.2064e-027   
     length 0.625099   
     axis 2.04295e-015 -90 -90   XYZ
    dof rx
    limits (0.0 90.0)
  end
  begin
     id 30
     name rthumb
     direction -0.707107 -6.34989e-011 0.707107   
     length 0.897521   
     axis -90 -45 1.62303e-014   XYZ
    dof rx rz
    limits (-45.0 45.0)
           (-45.0 45.0)
  end
:hierarchy
  begin
    root lhipjoint rhipjoint lowerback
    lhipjoint lfemur
    lfemur ltibia
    ltibia lfoot
    lfoot ltoes
    rhipjoint rfemur
    rfemur rtibia
    rtibia rfoot
    rfoot rtoes
    lowerback upperback
    upperback thorax
    thorax lowerneck lclavicle rclavicle
    lowerneck upperneck
    upperneck head
    lclavicle lhumerus
    lhumerus lradius
    lradius lwrist
    lwrist lhand lthumb
    lhand lfingers
    rclavicle rhumerus
    rhumerus rradius
    rradius rwrist
    rwrist rhand rthumb
    rhand rfingers
  end

#!OML:ASF \\sashay\E\Suitcase\Project 1\Capture day 1\Session 1\Male1.ASF
:FULLY-SPECIFIED
:DEGREES
578
root 1.19333 17.1187 -2.04135 1.12497 3.78146 4.34612
lowerback 7.18339 -0.522586 -8.37902
upperback 0.70053 -1.33055 0.87253
thorax -3.09397 -0.550777 5.75987
lowerneck -14.6332 0.433016 0.0682189
upperneck 28.8053 1.95466 -4.36212
head 11.9189 0.330474 -1.35984
rclavicle 1.39895e-014 1.98785e-015
rhumerus -30.3881 -28.878 -68.9555
rradius 22.0407
rwrist -6.9726
rhand -8.74704 24.4736
rfingers 7.12502
rthumb 17.1899 -4.78601
lclavicle 1.39895e-014 1.98785e-015
lhumerus -19.6992 -9.80747 85.3928
lradius 35.9463
lwrist -3.836
lhand -4.47976 42.9654
lfingers 7.12502
lthumb 21.2932 71.8157
rfemur -28.1577 0.172896 12.9495
rtibia 17.9558
rfoot -9.53086 -16.2156
rtoes 8.55297
lfemur 6.65038 -6.54055 -30.8139
ltibia 15.3047
lfoot -19.9636 -5.61417
ltoes 18.2785
579
root 1.18403 17.1094 -1.909 1.35782 3.88061 4.24115
lowerback 6.86505 -0.670241 -8.29493
upperback 0.765496 -1.48644 0.94084
thorax -2.8224 -0.643622 5.78837
lowerneck -15.0539 0.458805 -0.556178
upperneck 28.9407 2.01593 -3.8218
head 12.0497 0.351029 -1.04267
rclavicle 1.83876e-015 3.97569e-015
rhumerus -29.6945 -28.4588 -69.6059
rradius 22.3263
rwrist -7.36793
rhand -8.52598 25.0987
rfingers 7.12502
rthumb 17.4027 -4.14224
lclavicle 1.83876e-015 3.97569e-015
lhumerus -19.3198 -10.1597 85.3432
lradius 36.2794
lwrist -3.0438
lhand -4.32811 43.171
lfingers 7.12502
lthumb 21.4389 72.0047
rfemur -28.2164 1.01756 12.7245
rtibia 16.5102
rfoot -11.3233 -16.8265
rtoes 7.60355
lfemur 7.63526 -6.73588 -30.6727
ltibia 14.1161
lfoot -19.2052 -5.97858
ltoes 18.4716
580
root 1.17432 17.0934 -1.76803 1.58891 3.94912 4.54218
lowerback 6.61573 -0.570243 -8.65231
upperback 0.447765 -1.37078 0.933684
thorax -3.02654 -0.561703 5.97272
lowerneck -14.3304 0.414434 0.3027
upperneck 28.901 1.91577 -4.53494
head 11.8965 0.319736 -1.47165
rclavicle 2.98177e-016 1.94809e-014
rhumerus -30.0271 -28.3595 -69.2395
rradius 22.3156
rwrist -7.69225
rhand -8.36852 25.4872
rfingers 7.12502
rthumb 17.5542 -3.74028
lclavicle 2.98177e-016 1.94809e-014
lhumerus -19.8003 -10.6577 85.8141
lradius 36.9794
lwrist -3.16576
lhand -3.81928 43.8914
lfingers 7.12502
lthumb 21.9275 72.6687
rfemur -28.3227 1.29398 12.2668
rtibia 15.3266
rfoot -12.3117 -17.0459
rtoes 3.06321
lfemur 8.44311 -6.37597 -30.9754
ltibia 13.0484
lfoot -19.019 -5.91892
ltoes 17.9009
581
root 1.16058 17.0811 -1.62736 1.58428 4.30398 4.71728
lowerback 6.49178 -0.713628 -8.79596
upperback 0.497374 -1.55922 0.896483
thorax -2.87074 -0.662943 6.02595
lowerneck -14.6914 0.287948 0.454491
upperneck 29.2644 1.79602 -4.8125
head 12.116 0.237681 -1.6278
rclavicle 1.29459e-014 1.59028e-015
rhumerus -29.8943 -27.4845 -69.9977
rradius 23.3407
rwrist -8.46299
rhand -8.84603 25.6958
rfingers 7.12502
rthumb 17.0946 -3.57217
lclavicle 1.29459e-014 1.59028e-015
lhumerus -19.376 -11.2011 85.7794
lradius 37.0511
lwrist -2.68095
lhand -4.12645 43.3041
lfingers 7.12502
lthumb 21.6325 72.1157
rfemur -27.9531 1.63281 11.8669
rtibia 14.4933
rfoot -14.1999 -17.2191
rtoes 2.35676
lfemur 9.5186 -6.12474 -31.0776
ltibia 12.0868
lfoot -18.5428 -6.34209
ltoes 16.9123
582
root 1.15498 17.0701 -1.49914 1.90372 4.39408 4.83685
lowerback 6.31254 -0.807179 -8.94414
upperback 0.4041 -1.67891 0.967914
thorax -2.84155 -0.718568 6.19146
lowerneck -15.2677 0.396629 0.10513
upperneck 29.4218 1.95983 -4.46264
head 12.2983 0.307392 -1.41526
rclavicle 9.29318e-015 -1.07344e-014
rhumerus -29.6318 -26.9474 -70.427
rradius 24.3091
rwrist -8.79391
rhand -9.12077 25.0769
rfingers 7.12502
rthumb 16.8302 -4.21376
lclavicle 9.29318e-015 -1.07344e-014
lhumerus -19.1902 -10.8372 85.8787
lradius 37.4217
lwrist -3.0615
lhand -4.25686 43.0419
lfingers 7.12502
lthumb 21.5073 71.8679
rfemur -28.2562 1.3517 11.8332
rtibia 14.0888
rfoot -14.9968 -16.9712
rtoes 1.56168
lfemur 10.143 -6.01232 -31.1582
ltibia 11.2553
lfoot -18.34 -6.41013
ltoes 16.2649
583
root 1.12766 17.0593 -1.35898 1.99807 4.40537 4.68585
lowerback 6.02663 -0.808638 -8.94825
upperback 0.305629 -1.6567 0.996264
thorax -2.78711 -0.70659 6.21543
lowerneck -15.0811 0.408895 -0.182228
upperneck 29.5581 1.90909 -3.96703
head 12.3036 0.317575 -1.18641
rclavicle -7.45443e-015 2.78299e-015
rhumerus -29.5272 -26.8649 -70.7051
rradius 24.2834
rwrist -8.96176
rhand -9.11446 25.5124
rfingers 7.12502
rthumb 16.8363 -3.77767
lclavicle -7.45443e-015 2.78299e-015
lhumerus -19.0279 -11.4762 85.9276
lradius 37.5054
lwrist -2.46176
lhand -4.65016 42.6322
lfingers 7.12502
lthumb 21.1295 71.5009
rfemur -28.3077 1.63669 12.1561
rtibia 14.0986
rfoot -16.0155 -17.288
rtoes 1.04712
lfemur 10.6516 -6.06832 -30.9258
ltibia 10.6335
lfoot -17.9206 -6.56605
ltoes 20.3075
584
root 1.1104 17.0391 -1.23533 2.12715 4.24186 4.77987
lowerback 6.22166 -0.780743 -9.0742
upperback 0.0909593 -1.65864 0.958953
thorax -3.11997 -0.681957 6.2574
lowerneck -14.712 0.461977 0.111307
upperneck 29.4897 1.94273 -4.12935
head 12.2038 0.349482 -1.29228
rclavicle -8.69683e-016 1.51076e-014
rhumerus -29.3055 -26.322 -71.0677
rradius 24.5937
rwrist -9.33395
rhand -9.34361 25.742
rfingers 7.12502
rthumb 16.6157 -3.56671
lclavicle -8.69683e-016 1.51076e-014
lhumerus -19.278 -11.6042 85.8954
lradius 38.0367
lwrist -2.71003
lhand -4.61702 42.772
lfingers 7.12502
lthumb 21.1613 71.6371
rfemur -28.4365 1.0091 12.6799
rtibia 14.1755
rfoot -15.3787 -17.7276
rtoes -1.72175
lfemur 10.9921 -6.03073 -31.0002
ltibia 10.5839
lfoot -17.7574 -6.34393
ltoes 20.0594
585
root 1.10044 17.0173 -1.10462 2.23446 4.44071 4.85866
lowerback 6.10433 -0.881449 -9.15351
upperback 0.086401 -1.78568 0.994123
thorax -3.03316 -0.748005 6.3459
lowerneck -14.7014 0.323814 -0.0211231
upperneck 29.1891 1.67138 -3.82815
head 12.069 0.255889 -1.19072
rclavicle 1.9133e-014 -2.34566e-014
rhumerus -28.5859 -26.6244 -71.2288
rradius 24.1207
rwrist -8.899
rhand -9.26178 26.8007
rfingers 7.12502
rthumb 16.6944 -2.5014
lclavicle 1.9133e-014 -2.34566e-014
lhumerus -19.0999 -11.4457 85.9481
lradius 38.2819
lwrist -2.67588
lhand -4.55822 42.1329
lfingers 7.12502
lthumb 21.2178 70.9917
rfemur -28.5246 -1.17296 13.6507
rtibia 14.6131
rfoot -14.0707 -17.1193
rtoes -1.12116
lfemur 11.4582 -6.01518 -31.0258
ltibia 10.5031
lfoot -17.2331 -6.1843
ltoes 19.4212
586
root 1.07437 17.0095 -0.967665 2.20995 4.41678 4.83811
lowerback 6.23514 -0.866215 -9.30328
upperback 0.0252047 -1.78932 1.08232
thorax -3.16361 -0.738114 6.53051
lowerneck -14.8986 0.316698 -0.0777987
upperneck 29.4951 1.74209 -3.98516
head 12.2363 0.254775 -1.23493
rclavicle 2.127e-014 -4.77083e-015
rhumerus -28.6023 -26.0062 -71.6119
rradius 25.0593
rwrist -9.73274
rhand -9.35701 25.7122
rfingers 7.12502
rthumb 16.6028 -3.59761
lclavicle 2.127e-014 -4.77083e-015
lhumerus -18.8506 -11.7417 86.0888
lradius 38.2301
lwrist -2.57557
lhand -4.93574 41.5976
lfingers 7.12502
lthumb 20.8552 70.4967
rfemur -28.4646 -1.13557 14.0493
rtibia 15.3186
rfoot -14.3398 -18.3597
rtoes 3.90796
lfemur 12.1214 -5.88379 -30.8244
ltibia 10.4267
lfoot -17.6964 -6.53735
ltoes 18.2945
587
root 1.06311 16.9974 -0.829684 2.11003 4.62985 5.05355
lowerback 6.41403 -0.952406 -9.36749
upperback 0.00453741 -1.93361 0.919036
thorax -3.26376 -0.803977 6.41098
lowerneck -14.8211 0.445738 0.2287
upperneck 29.6036 1.84918 -4.00122
head 12.2681 0.334219 -1.27989
rclavicle 1.01132e-014 -2.06736e-014
rhumerus -28.0634 -26.0588 -71.9714
rradius 24.5622
rwrist -9.46989
rhand -9.76952 26.2274
rfingers 7.12502
rthumb 16.2056 -3.11527
lclavicle 1.01132e-014 -2.06736e-014
lhumerus -19.1091 -11.9618 85.9263
lradius 38.7899
lwrist -2.63072
lhand -4.56557 41.89
lfingers 7.12502
lthumb 21.2108 70.7495
rfemur -28.3047 -2.30154 14.5218
rtibia 16.1715
rfoot -12.8589 -18.8932
rtoes 3.29172
lfemur 12.7194 -6.15097 -31.1034
ltibia 10.4663
lfoot -17.0969 -6.44965
ltoes 18.4862
588
root 1.04431 16.9841 -0.681873 2.04733 4.64 4.59837
lowerback 6.51259 -0.94042 -8.89023
upperback -0.0966387 -1.89263 1.02425
thorax -3.44363 -0.778228 6.25394
lowerneck -14.9189 0.428013 0.586045
upperneck 29.6451 1.86055 -4.43597
head 12.3136 0.321575 -1.5064
rclavicle 6.11263e-015 7.15625e-015
rhumerus -28.2857 -25.3457 -72.3434
rradius 25.6853
rwrist -10.5038
rhand -9.55687 26.0811
rfingers 7.12502
rthumb 16.4103 -3.24479
lclavicle 6.11263e-015 7.15625e-015
lhumerus -19.2455 -11.8762 85.9836
lradius 39.0439
lwrist -2.83033
lhand -4.43354 42.3887
lfingers 7.12502
lthumb 21.3376 71.2339
rfemur -28.1011 -2.34928 15.4651
rtibia 16.8855
rfoot -11.8424 -20.0746
rtoes 3.39286
lfemur 13.2471 -6.30951 -30.5768
ltibia 10.5665
lfoot -17.4895 -6.21979
ltoes 14.5347
589
root 1.02111 16.9805 -0.531342 2.1214 4.71669 4.73354
lowerback 6.20881 -1.01762 -9.09749
upperback 0.0146172 -1.97538 1.03749
thorax -3.13419 -0.835374 6.37934
lowerneck -15.0575 0.398035 0.473364
upperneck 29.5997 1.78644 -4.24208
head 12.3186 0.299603 -1.4237
rclavicle -1.42876e-014 -1.90833e-014
rhumerus -27.5349 -25.4841 -72.6448
rradius 25.5788
rwrist -10.1739
rhand -9.5841 26.312
rfingers 7.12502
rthumb 16.3841 -3.016
lclavicle -1.42876e-014 -1.90833e-014
lhumerus -19.0154 -11.9267 86.0464
lradius 39.1483
lwrist -2.45591
lhand -5.07922 42.0681
lfingers 7.12502
lthumb 20.7173 70.9822
rfemur -27.8334 -2.86732 15.8323
rtibia 17.441
rfoot -10.0694 -20.3013
rtoes 2.8812
lfemur 14.0761 -6.47255 -30.594
ltibia 10.5368
lfoot -17.6133 -6.4779
ltoes 14.6774
590
root 1.00777 17.002 -0.380463 2.30185 4.87167 4.55245
lowerback 5.99625 -1.15909 -8.87198
upperback -0.12547 -2.13177 1.08139
thorax -3.14005 -0.911385 6.30485
lowerneck -14.7573 0.500894 0.788237
upperneck 29.4827 1.88108 -4.38478
head 12.2154 0.363183 -1.51581
rclavicle -3.97569e-015 -2.3059e-014
rhumerus -27.1709 -25.0807 -72.9406
rradius 25.3821
rwrist -10.4354
rhand -9.65252 26.4595
rfingers 7.12502
rthumb 16.3182 -2.87393
lclavicle -3.97569e-015 -2.3059e-014
lhumerus -19.1411 -11.878 86.0141
lradius 39.132
lwrist -2.41615
lhand -4.57873 42.4232
lfingers 7.12502
lthumb 21.1981 71.2842
rfemur -27.8163 -2.35148 15.9857
rtibia 17.9354
rfoot -9.07325 -20.7526
rtoes 4.61616
lfemur 14.3793 -6.59485 -30.2499
ltibia 10.1884
lfoot -16.6167 -7.41881
ltoes 17.1306
591
root 0.989678 17.0115 -0.234539 2.36708 4.98379 3.9945
lowerback 6.29736 -1.23533 -8.28479
upperback -0.456339 -2.22633 1.25353
thorax -3.65481 -0.931367 6.18063
lowerneck -15.1403 0.487701 0.417009
upperneck 29.9915 1.92243 -4.15665
head 12.4976 0.358639 -1.368
rclavicle 3.20789e-014 -1.19271e-015
rhumerus -27.8758 -24.1027 -73.2002
rradius 26.7488
rwrist -11.09
rhand -9.93768 25.7112
rfingers 7.12502
rthumb 16.0437 -3.6446
lclavicle 3.20789e-014 -1.19271e-015
lhumerus -19.8234 -11.7158 86.1687
lradius 39.2462
lwrist -2.75843
lhand -4.98396 41.8335
lfingers 7.12502
lthumb 20.8088 70.7377
rfemur -27.7744 -1.47082 16.4193
rtibia 18.2225
rfoot -7.88486 -21.1048
rtoes 10.8677
lfemur 14.7339 -6.71474 -29.495
ltibia 10.1834
lfoot -16.1453 -7.64888
ltoes 15.6598
